# xmcd
#
# Track frame offsets:
#	150
#	90287
#	202815
#	221592
#	242722
#	264580
#	289379
#	312345
#
# Disc length: 4486 seconds
# Revision: 0
# Processed by: cddbd v1.5.2PL0 Copyright (c) Steve Scherf et al.
# Submitted via: dBpowerAMP V12.0
#
DISCID=6f118408
DTITLE=Various Artist - XXL-Die Remixe
DYEAR=2004
DGENRE=Discofox
TTITLE0=Oliver Frank - Sommer-Hitmix
TTITLE1=Oliver Frank - Hautnah-Hitmix
TTITLE2=Oliver Frank - Gime Gimme Gimme (Remix)
TTITLE3=Oliver Frank - Nix wie weg! (Maxi)
TTITLE4=Oliver Frank - Schwerelos (Remix)
TTITLE5=Oliver Frank - 7 Wochen (Italienische Sehnsucht Part II) (Remix)
TTITLE6=Oliver Frank - Wehrlos (Maxi Remix)
TTITLE7=Oliver Frank and Marco Kloss - Pflaumenpolka 2002
EXTD=
EXTT0=
EXTT1=
EXTT2=
EXTT3=
EXTT4=
EXTT5=
EXTT6=
EXTT7=
PLAYORDER=
